<!-- icon666.com - MILLIONS vector ICONS FREE --><svg id="Layer_1" enable-background="new 0 0 128 128" viewBox="0 0 128 128" xmlns="http://www.w3.org/2000/svg"><path d="m4 4h80v100h-80z" fill="#fff"></path><g fill="#444b54"><path d="m116 51.8-15-14c-1.2-1.1-3.1-1.1-4.2.1s-1.1 3.1.1 4.2l9.4 8.8h-30.3c-1.7 0-3 1.3-3 3s1.3 3 3 3h30.8l-9.9 9.9c-1.2 1.2-1.2 3.1 0 4.2.6.6 1.4.9 2.1.9s1.5-.3 2.1-.9l15-15c.6-.6.9-1.4.9-2.2s-.4-1.4-1-2z"></path><path d="m84 107h-20c-1.7 0-3-1.3-3-3s1.3-3 3-3h17v-17c0-1.7 1.3-3 3-3s3 1.3 3 3v20c0 1.7-1.3 3-3 3z"></path><path d="m84 27c-1.7 0-3-1.3-3-3v-17h-47c-1.7 0-3-1.3-3-3s1.3-3 3-3h50c1.7 0 3 1.3 3 3v20c0 1.7-1.3 3-3 3z"></path></g><path d="m45.3 21.3-40-20c-.9-.5-2-.4-2.9.1-.9.6-1.4 1.6-1.4 2.6v100c0 1.1.6 2.2 1.7 2.7l40 20c.4.2.9.3 1.3.3.5 0 1.1-.2 1.6-.4.9-.6 1.4-1.6 1.4-2.6v-100c0-1.1-.6-2.2-1.7-2.7z" fill="#6f4986"></path><circle cx="61" cy="54" fill="#444b54" r="3"></circle></svg>